<svg width="139" height="63" viewBox="0 0 139 63" fill="none" xmlns="http://www.w3.org/2000/svg">
<g opacity="0.8" clip-path="url(#clip0_59_45)">
<mask id="mask0_59_45" style="mask-type:luminance" maskUnits="userSpaceOnUse" x="0" y="0" width="140" height="63">
<path d="M0 0.134277H139V62.9999H0V0.134277Z" fill="white"/>
</mask>
<g mask="url(#mask0_59_45)">
<path fill-rule="evenodd" clip-rule="evenodd" d="M67.8471 8.28032C65.0098 4.62615 63.2384 2.26697 58.4382 0.865512C55.4314 -0.0124953 52.176 0.00796002 49.186 0.947333V6.79075C52.476 5.64158 54.2863 5.77428 56.8215 6.52431C60.4566 7.59952 61.9474 10.319 64.1139 13.1062L67.8471 8.28032ZM57.1845 24.706L69.959 8.28609C72.768 4.66759 74.5462 2.32728 79.3187 0.933696C82.3254 0.0562138 85.5808 0.0761445 88.5708 1.01552V6.85946C85.2813 5.70976 83.4711 5.84246 80.9353 6.59249C77.9396 7.47889 76.4478 9.51866 74.7388 11.7194L61.9029 28.2463L57.1845 24.706ZM81.8318 14.8523L69.0568 31.2722C66.2478 34.8907 64.4695 37.231 59.6971 38.624C56.6903 39.5015 53.4349 39.4816 50.445 38.5422V32.6988C53.7345 33.8479 55.5447 33.7153 58.0804 32.9652C61.0761 32.0788 62.568 30.0396 64.277 27.8383L77.1129 11.3114L81.8318 14.8523ZM71.1686 31.2774C74.0065 34.9321 75.7774 37.2913 80.5776 38.6922C83.5844 39.5702 86.8398 39.5503 89.8297 38.6104V32.767C86.5397 33.9167 84.7295 33.784 82.1943 33.0334C78.5591 31.9582 77.0683 29.2387 74.9019 26.4515L71.1686 31.2774ZM2.97256 60.3093H5.39601C6.79815 60.3093 7.81579 59.9369 8.44159 59.1922C9.07158 58.4474 9.38474 57.241 9.38474 55.5721C9.38474 53.9068 9.09204 52.6863 8.50664 51.9037C7.92123 51.1212 7.00903 50.7315 5.7632 50.7315H2.97256V60.3093ZM0.0119629 62.9984V48.1247H5.7632C8.01985 48.1247 9.70105 48.7421 10.8073 49.9731C11.9131 51.2035 12.4681 53.0723 12.4681 55.5757C12.4681 56.9373 12.264 58.1337 11.8554 59.1717C11.4468 60.2091 10.8514 61.0436 10.0756 61.6746C9.49018 62.1472 8.82294 62.4849 8.07755 62.6916C7.33583 62.8951 6.29091 62.9984 4.94647 62.9984H0.0119629ZM20.1665 51.1039L18.1312 57.434H22.2086L20.1665 51.1039ZM18.4103 48.1247H21.8986L27.1945 62.9984H24.0225L23.0253 59.9369H17.3349L16.3682 62.9984H13.1862L18.4103 48.1247ZM28.7052 62.9984V48.1247H31.8673L37.833 58.344V48.1247H40.8146V62.9984H37.6935L31.6868 52.7791V62.9984H28.7052ZM43.942 48.1247H46.964V62.9984H43.942V48.1247ZM50.1124 62.9984V48.1247H60.7782V50.7105H53.0934V53.8759H60.1215V56.4202H53.0934V60.2474H61.1391V62.9984H50.1124ZM63.443 62.9984V48.1247H66.4654V60.2474H73.633V62.9984H63.443ZM81.0896 62.9984V48.1247H84.1115V54.2341L89.846 48.1247H93.6275L87.7635 54.1449L94.1584 62.9984H90.4655L85.6773 56.1926L84.1115 57.7681V62.9984H81.0896ZM95.4483 62.9984V48.1247H98.4702V60.2474H105.638V62.9984H95.4483ZM107.292 62.9984V48.1247H117.958V50.7105H110.273V53.8759H117.301V56.4202H110.273V60.2474H118.318V62.9984H107.292ZM120.725 48.1247H123.747V62.9984H120.725V48.1247ZM126.895 62.9984V48.1247H130.058L136.023 58.344V48.1247H139.004V62.9984H135.883L129.876 52.7791V62.9984H126.895Z" fill="#1B1918"/>
</g>
</g>
<defs>
<clipPath id="clip0_59_45">
<rect width="139" height="63" fill="white"/>
</clipPath>
</defs>
</svg>
