<svg width="200" height="39" viewBox="0 0 200 39" fill="none" xmlns="http://www.w3.org/2000/svg">
<path d="M8.73596 18.7198C11.808 21.1518 13.472 23.1998 13.472 26.2718C13.472 30.1438 10.72 32.3198 6.59196 32.3198C4.67196 32.3198 3.29596 31.8078 2.23996 31.8078C1.85596 31.8078 1.50396 31.8718 1.18396 31.9998H0.959961V26.3678H1.27996C1.59996 29.9839 3.77596 32.0638 6.55996 32.0638C9.02396 32.0638 10.048 30.4319 10.048 28.5758C10.048 26.0798 8.83196 24.6398 5.72796 22.2078C2.68796 19.7758 1.02396 17.7278 1.02396 14.6558C1.02396 10.9118 3.99996 8.79985 7.87196 8.79985C9.95196 8.79985 10.464 9.27985 11.584 9.27985C11.936 9.27985 12.288 9.24785 12.64 9.11985H12.864V14.3998H12.544C11.84 10.5278 10.624 9.08785 7.99996 9.08785C5.47196 9.08785 4.44796 10.7518 4.44796 12.6078C4.44796 15.1038 5.66396 16.2878 8.73596 18.7198Z" fill="#191919"/>
<path d="M24.2295 31.7438V31.9998H16.1335V31.7438H17.8935V16.7358H16.1335V16.4798H21.0935L21.7975 21.1198H21.8935C22.1175 17.2158 23.8455 16.1278 25.6055 16.1278C27.3335 16.1278 28.1335 17.2799 28.1335 18.3998C28.1335 20.5758 26.1815 21.7598 24.3255 21.9198L24.2295 21.8558C24.5495 21.1198 24.7415 20.0958 24.7415 19.0718C24.7415 18.0478 24.3255 17.2158 23.9415 17.0558C23.4935 17.1518 22.3095 18.0798 22.1495 21.6318V31.7438H24.2295Z" fill="#191919"/>
<path d="M30.1635 24.2558C30.1635 18.7198 32.8835 16.1598 37.4915 16.1598C41.5555 16.1598 43.1555 18.0478 43.1555 20.7038C43.1555 21.5358 42.9635 22.4638 42.5795 23.1358H34.6755V24.2558C34.6755 28.9278 35.3795 31.6478 38.9635 31.6478C41.1395 31.6478 42.6435 29.8559 42.6435 28.1598H42.9315C42.9315 30.0159 41.3315 32.3198 37.5235 32.3198C32.7875 32.3198 30.1635 29.9838 30.1635 24.2558ZM37.4915 16.4158C35.2515 16.4158 34.7395 18.8478 34.6755 22.8798H38.0675C39.4115 22.8798 39.7315 21.9518 39.7315 20.4478C39.7315 18.2078 39.4435 16.4158 37.4915 16.4158Z" fill="#191919"/>
<path d="M61.6085 23.5198C61.6085 29.7278 59.0485 32.3198 54.9205 32.3198C53.3205 32.3198 52.2645 31.7118 51.5605 30.6238V31.9998H47.3365V8.25585H45.5765V7.99985H51.5605V19.3918C52.4885 17.3758 53.9925 16.1598 56.1045 16.1598C59.9445 16.1598 61.6085 18.3038 61.6085 23.5198ZM51.5605 20.0638V30.0478C52.2005 31.3918 53.1285 31.9038 54.3765 31.9038C56.3925 31.9038 57.1605 29.5678 57.1605 23.5198C57.1605 18.3678 56.5525 16.7678 54.9845 16.7678C53.5765 16.7678 52.3285 18.0159 51.5605 20.0638Z" fill="#191919"/>
<path d="M72.4532 31.7438V31.9998H64.3572V31.7438H66.1172V16.7358H64.3572V16.4798H69.3172L70.0212 21.1198H70.1172C70.3412 17.2158 72.0692 16.1278 73.8292 16.1278C75.5572 16.1278 76.3572 17.2799 76.3572 18.3998C76.3572 20.5758 74.4052 21.7598 72.5492 21.9198L72.4532 21.8558C72.7732 21.1198 72.9652 20.0958 72.9652 19.0718C72.9652 18.0478 72.5492 17.2158 72.1652 17.0558C71.7172 17.1518 70.5332 18.0798 70.3732 21.6318V31.7438H72.4532Z" fill="#191919"/>
<path d="M93.2992 24.1918C93.2992 29.5998 90.8352 32.3198 85.8432 32.3198C80.8512 32.3198 78.3872 29.5998 78.3872 24.1918C78.3872 18.8478 80.8512 16.1598 85.8432 16.1598C90.8352 16.1598 93.2992 18.8478 93.2992 24.1918ZM88.7872 24.1918C88.7872 18.4638 88.0832 16.4158 85.8432 16.4158C83.6672 16.4158 82.8992 18.4638 82.8992 24.1918C82.8992 29.9838 83.6672 32.0638 85.8432 32.0638C88.0832 32.0638 88.7872 29.9838 88.7872 24.1918Z" fill="#191919"/>
<path d="M118.354 26.5278H118.674V31.9998H104.178V31.7438H106.226V9.37585H104.178V9.11985H112.658V9.37585H110.61V31.7438H114.034C116.562 31.7438 118.354 29.2158 118.354 26.5278Z" fill="#191919"/>
<path d="M121.798 24.2558C121.798 18.7198 124.518 16.1598 129.126 16.1598C133.19 16.1598 134.79 18.0478 134.79 20.7038C134.79 21.5358 134.598 22.4638 134.214 23.1358H126.31V24.2558C126.31 28.9278 127.014 31.6478 130.598 31.6478C132.774 31.6478 134.278 29.8559 134.278 28.1598H134.566C134.566 30.0159 132.966 32.3198 129.158 32.3198C124.422 32.3198 121.798 29.9838 121.798 24.2558ZM129.126 16.4158C126.886 16.4158 126.374 18.8478 126.31 22.8798H129.702C131.046 22.8798 131.366 21.9518 131.366 20.4478C131.366 18.2078 131.078 16.4158 129.126 16.4158Z" fill="#191919"/>
<path d="M144.763 38.4638V38.7198H137.243V38.4638H138.875V16.7358H137.115V16.4798H142.843L143.067 19.3278C143.995 17.3438 145.563 16.1598 147.675 16.1598C151.483 16.1598 153.147 18.3038 153.147 23.5198C153.147 29.7278 150.619 32.3198 146.491 32.3198C144.859 32.3198 143.835 31.7118 143.131 30.6238V38.4638H144.763ZM143.131 20.0958V30.0478C143.739 31.3918 144.667 31.9038 145.947 31.9038C147.963 31.9038 148.731 29.5678 148.731 23.5198C148.731 18.3998 148.123 16.7998 146.555 16.7998C145.147 16.7998 143.899 18.0478 143.131 20.0958Z" fill="#191919"/>
<path d="M159.706 13.1198C158.522 13.1198 157.562 12.1278 157.562 10.9438C157.562 9.75985 158.522 8.79985 159.706 8.79985C160.922 8.79985 161.882 9.75985 161.882 10.9438C161.882 12.1278 160.922 13.1198 159.706 13.1198ZM163.642 31.7438V31.9998H155.898V31.7438H157.658V16.7358H155.898V16.4798H161.882V31.7438H163.642Z" fill="#191919"/>
<path d="M173.086 13.9838L172.862 13.7918C174.366 12.0958 175.134 9.98385 175.422 8.06385L178.334 9.05585C177.246 11.0078 175.326 12.7998 173.086 13.9838ZM173.598 16.1598C177.342 16.1598 178.782 17.5038 178.782 19.4878C178.782 21.3118 177.022 22.6238 175.422 22.7838L175.326 22.6878C175.646 21.7598 175.806 20.7358 175.806 19.7118C175.806 18.0798 175.486 16.4158 173.598 16.4158C171.198 16.4158 170.878 19.4238 170.878 24.3518C170.878 28.9598 171.454 31.6158 175.006 31.6158C177.182 31.6158 178.398 29.7918 178.398 28.1598H178.686C178.686 30.0159 177.182 32.3198 173.63 32.3198C168.926 32.3198 166.366 30.0158 166.366 24.3518C166.366 18.8158 169.022 16.1598 173.598 16.1598Z" fill="#191919"/>
<path d="M191.942 1.12158C192.132 -0.0346671 193.795 -0.0346655 193.985 1.12158L194.574 4.69812L198.151 5.28723C199.307 5.47769 199.307 7.14019 198.151 7.33065L194.574 7.91976L193.985 11.4963C193.795 12.6525 192.132 12.6525 191.942 11.4963L191.353 7.91976L187.776 7.33065C186.62 7.14019 186.62 5.47769 187.776 5.28723L191.353 4.69812L191.942 1.12158Z" fill="white"/>
</svg>
