<svg width="287" height="60" viewBox="0 0 287 60" fill="none" xmlns="http://www.w3.org/2000/svg">
<path opacity="0.9" d="M179.802 10.3729H181.015L180.004 0.101695L179.903 0H179.6V0.101695L178.488 10.3729H178.589H179.802ZM185.563 11.0847V10.9831L187.281 1.83051V1.72881L186.978 1.62712L186.877 1.72881L183.137 10.4746L185.563 11.0847ZM183.743 15.0508C184.451 15.0508 185.158 14.4407 185.158 13.6271C185.158 12.8136 184.552 12.2034 183.743 12.2034C182.935 12.2034 182.328 12.8136 182.328 13.6271C182.328 14.4407 182.935 15.0508 183.743 15.0508ZM179.802 14.5424C180.509 14.5424 181.217 13.9322 181.217 13.1186C181.217 12.3051 180.61 11.6949 179.802 11.6949C178.993 11.6949 178.387 12.3051 178.387 13.1186C178.286 14.0339 178.993 14.5424 179.802 14.5424ZM174.041 11.0847L176.365 10.4746H176.466L172.626 1.72881L172.525 1.62712L172.323 1.72881L172.222 1.83051L173.94 10.9831L174.041 11.0847ZM174.344 13.5254C174.344 14.339 174.95 14.9492 175.759 14.9492C176.466 14.9492 177.174 14.339 177.174 13.5254C177.174 12.7119 176.568 12.1017 175.759 12.1017C175.051 12.2034 174.344 12.8136 174.344 13.5254ZM12.2293 17.5932H0C0 17.5932 0.303207 20.5424 0.303207 25.6271V51.3559C0.303207 56.4407 0 59.3898 0 59.3898L0.101069 59.4915H8.08552V59.3898C8.08552 59.3898 7.78231 56.4407 7.78231 51.3559V43.8305L7.88338 43.7288C8.99514 43.8305 11.4208 43.9322 12.2293 43.9322C20.4159 43.9322 27.4908 38.9492 27.4908 30.4068C27.3897 22.2712 20.3149 17.5932 12.2293 17.5932ZM11.8251 37.1186C10.9155 37.1186 8.69193 37.0169 7.78231 36.8136V24.4068H12.4315C16.5753 24.4068 19.8095 26.0339 19.8095 30.4068C19.8095 34.7797 16.9796 37.1186 11.8251 37.1186ZM50.1302 20.9492C49.2206 18.8136 48.9174 17.5932 48.9174 17.5932L48.8163 17.4915H42.449L42.3479 17.5932C42.3479 17.5932 42.1458 18.8136 41.2361 20.9492L27.1876 54.9153C25.9747 57.7627 24.7619 59.3898 24.7619 59.3898V59.4915H32.9485L33.0496 59.3898C33.0496 59.1864 33.2517 58.1695 34.2624 55.6271L36.7891 49.2203H54.8805L57.6093 55.6271C58.5189 58.0678 59.0243 59.3898 59.0243 59.3898L59.1254 59.4915H67.312V59.3898C67.312 59.3898 66.2002 57.8644 64.8863 54.9153L50.1302 20.9492ZM39.619 42.3051L45.481 27.5593H45.5821L51.9495 42.3051H39.619ZM108.346 17.5932L101.069 17.4915L100.968 17.5932C100.968 17.5932 101.271 20.5424 101.271 25.6271V46.678H101.17L78.7327 17.5932H70.7483C71.6579 19.5254 72.1633 20.8475 72.1633 21.7627V51.3559C72.1633 56.4407 71.8601 59.3898 71.8601 59.3898L71.9611 59.4915H79.2381L79.3392 59.3898C79.3392 59.3898 79.0359 56.4407 79.0359 51.3559V29.8983H79.137L101.675 59.3898H108.447L108.548 59.2881C108.548 59.2881 108.245 56.339 108.245 51.2542V25.6271C108.043 20.5424 108.346 17.5932 108.346 17.5932ZM130.985 17.5932H117.038L116.937 17.6949C116.937 17.6949 117.24 20.6441 117.24 25.7288V51.4576C117.24 56.5424 116.937 59.4915 116.937 59.4915L117.038 59.5932H121.283C124.113 59.5932 127.246 60 130.783 60C143.518 60 152.614 50.9492 152.614 38.7458C152.614 26.339 143.821 17.5932 130.985 17.5932ZM130.48 52.8814C128.459 52.8814 126.639 52.7797 125.528 52.4746C124.921 52.2712 124.719 52.0678 124.719 50.9492V24.4068H130.278C139.273 24.4068 145.034 30.5085 145.034 38.6441C145.034 46.678 139.273 52.8814 130.48 52.8814ZM179.802 16.983C167.775 16.983 158.476 26.339 158.476 38.4407C158.476 50.6441 167.775 59.8983 179.802 59.8983C191.93 59.8983 201.127 50.6441 201.127 38.4407C201.127 26.339 191.93 16.983 179.802 16.983ZM179.802 53.0847C172.12 53.0847 166.056 46.7797 166.056 38.5424C166.056 30.3051 172.019 24 179.802 24C187.584 24 193.547 30.3051 193.547 38.5424C193.547 46.678 187.584 53.0847 179.802 53.0847ZM230.741 45.2542C229.73 43.6271 228.214 42.3051 226.597 41.7966V41.6949C230.943 40.7797 234.985 35.6949 234.985 30.6102C234.985 23.6949 229.73 17.5932 221.543 17.5932H208.202L208.101 17.6949C208.101 17.6949 208.404 20.6441 208.404 25.7288V51.4576C208.404 56.5424 208.101 59.4915 208.101 59.4915L208.202 59.5932H216.187L216.288 59.4915C216.288 59.4915 215.984 56.5424 215.984 51.4576V43.4237C219.926 43.4237 221.543 44.2373 222.958 46.4746L226.395 51.8644C229.224 56.4407 230.336 59.2881 230.336 59.2881L230.437 59.3898H239.938V59.2881C239.938 59.2881 237.512 56.339 234.783 51.8644L230.741 45.2542ZM219.724 36.7119C218.814 36.7119 217.096 36.7119 215.984 36.5085V24.4068H220.533C224.98 24.4068 227.405 27.3559 227.405 30.7119C227.405 33.8644 224.98 36.7119 219.724 36.7119ZM284.105 54.9153L269.349 20.9492C268.439 18.8136 268.136 17.5932 268.136 17.5932L268.035 17.4915H261.567L261.466 17.5932C261.466 17.5932 261.263 18.8136 260.354 20.9492L246.406 54.9153C245.193 57.7627 243.981 59.3898 243.981 59.3898V59.4915H252.167L252.268 59.3898C252.268 59.1864 252.47 58.1695 253.481 55.6271L256.008 49.2203H274.099L276.828 55.6271C277.738 58.0678 278.243 59.3898 278.243 59.3898L278.344 59.4915H286.531V59.3898C286.531 59.3898 285.419 57.8644 284.105 54.9153ZM258.838 42.3051L264.7 27.5593H264.801L271.168 42.3051H258.838Z" fill="#191919"/>
</svg>
