<svg width="44" height="44" viewBox="0 0 44 44" fill="none" xmlns="http://www.w3.org/2000/svg">
<path d="M33.2118 11.0162C31.2367 9.72844 29.8111 7.66797 29.3664 5.26602C29.2704 4.74706 29.2176 4.21297 29.2176 3.6665H22.9138L22.9037 28.9298C22.7977 31.7588 20.4693 34.0294 17.6149 34.0294C16.7277 34.0294 15.8924 33.8076 15.1569 33.4206C13.4702 32.533 12.316 30.765 12.316 28.7306C12.316 25.8086 14.6932 23.4314 17.6149 23.4314C18.1603 23.4314 18.6835 23.5214 19.1784 23.6764V17.2409C18.6662 17.1712 18.1459 17.1276 17.6149 17.1276C11.217 17.1276 6.01221 22.3327 6.01221 28.7306C6.01221 32.6559 7.97342 36.1297 10.9655 38.2303C12.8501 39.5534 15.1425 40.3332 17.6149 40.3332C24.0127 40.3332 29.2176 35.1284 29.2176 28.7306V15.9199C31.69 17.6945 34.7191 18.7402 37.9877 18.7402V12.4364C36.227 12.4364 34.5871 11.913 33.2118 11.0162" fill="#191919"/>
</svg>
