<svg width="152" height="31" viewBox="0 0 152 31" fill="none" xmlns="http://www.w3.org/2000/svg">
<path d="M7 14L7.11837 17.2371C7.1908 19.2176 8.7587 20.8058 10.7128 20.8782L14 21L10.7128 21.1218C8.7587 21.1942 7.1908 22.7824 7.11837 24.7629L7 28L6.88163 24.7629C6.80921 22.7824 5.2413 21.1942 3.28722 21.1218L0 21L3.28721 20.8782C5.2413 20.8058 6.80921 19.2176 6.88163 17.2371L7 14Z" fill="#191919"/>
<path d="M10.4533 14.9378L8.95887 17.8012C8.04457 19.553 8.61886 21.7231 10.2754 22.776L13.0622 24.5473L10.1553 22.9869C8.4273 22.0594 6.2859 22.6403 5.24616 24.3187L3.54667 27.0622L5.04112 24.1988C5.95543 22.4469 5.38114 20.2769 3.72456 19.224L0.937822 17.4527L3.84471 19.0131C5.5727 19.9406 7.7141 19.3597 8.75384 17.6812L10.4533 14.9378Z" fill="#191919"/>
<path d="M12.9813 17.5L10.2745 19.2225C8.61845 20.2762 8.04525 22.4466 8.96044 24.1979L10.5 27.1441L8.75234 24.3197C7.71345 22.6407 5.57234 22.0587 3.84388 22.9853L1.01865 24.5L3.7255 22.7775C5.38155 21.7238 5.95475 19.5534 5.03956 17.8021L3.5 14.8559L5.24766 17.6803C6.28655 19.3593 8.42766 19.9413 10.1561 19.0147L12.9813 17.5Z" fill="#191919"/>
<path fill-rule="evenodd" clip-rule="evenodd" d="M47.239 20.3385L46.5894 16.1492L45.9398 20.3385L41.9963 21.0286L45.9398 21.7186L46.5894 25.9079L47.239 21.7186L51.1825 21.0286L47.239 20.3385ZM52.5064 21.0286L47.4262 21.9175L46.5894 27.3143L45.7526 21.9175L40.6724 21.0286L45.7526 20.1396L46.5894 14.7429L47.4262 20.1396L52.5064 21.0286Z" fill="#191919"/>
<path fill-rule="evenodd" clip-rule="evenodd" d="M47.8576 21.0242L47.208 16.8349L46.5584 21.0242L42.6149 21.7143L46.5584 22.4043L47.208 26.5936L47.8576 22.4043L51.8011 21.7143L47.8576 21.0242ZM53.125 21.7143L48.0448 22.6032L47.208 28L46.3712 22.6032L41.291 21.7143L46.3712 20.8254L47.208 15.4286L48.0448 20.8254L53.125 21.7143Z" fill="#191919"/>
<path d="M45.917 14L46.7538 19.3968L51.834 20.2857L46.7538 21.1746L45.917 26.5714L45.0802 21.1746L40 20.2857L45.0802 19.3968L45.917 14Z" fill="#191919"/>
<path d="M27 0L27.3966 2.40761C27.7513 4.56098 29.439 6.24873 31.5924 6.60343L34 7L31.5924 7.39657C29.439 7.75127 27.7513 9.43902 27.3966 11.5924L27 14L26.6034 11.5924C26.2487 9.43902 24.561 7.75127 22.4076 7.39657L20 7L22.4076 6.60343C24.561 6.24873 26.2487 4.56098 26.6034 2.40761L27 0Z" fill="#191919"/>
<path d="M66 0L66.3966 2.40761C66.7513 4.56098 68.439 6.24873 70.5924 6.60343L73 7L70.5924 7.39657C68.439 7.75127 66.7513 9.43902 66.3966 11.5924L66 14L65.6034 11.5924C65.2487 9.43902 63.561 7.75127 61.4076 7.39657L59 7L61.4076 6.60343C63.561 6.24873 65.2487 4.56098 65.6034 2.40761L66 0Z" fill="#191919"/>
<path d="M86 14L86.1184 17.2371C86.1908 19.2176 87.7587 20.8058 89.7128 20.8782L93 21L89.7128 21.1218C87.7587 21.1942 86.1908 22.7824 86.1184 24.7629L86 28L85.8816 24.7629C85.8092 22.7824 84.2413 21.1942 82.2872 21.1218L79 21L82.2872 20.8782C84.2413 20.8058 85.8092 19.2176 85.8816 17.2371L86 14Z" fill="#191919"/>
<path d="M89.4533 14.9378L87.9589 17.8012C87.0446 19.553 87.6189 21.7231 89.2754 22.776L92.0622 24.5473L89.1553 22.9869C87.4273 22.0594 85.2859 22.6403 84.2462 24.3187L82.5467 27.0622L84.0411 24.1988C84.9554 22.4469 84.3811 20.2769 82.7246 19.224L79.9378 17.4527L82.8447 19.0131C84.5727 19.9406 86.7141 19.3597 87.7538 17.6812L89.4533 14.9378Z" fill="#191919"/>
<path d="M91.9813 17.5L89.2745 19.2225C87.6185 20.2762 87.0453 22.4466 87.9604 24.1979L89.5 27.1441L87.7523 24.3197C86.7134 22.6407 84.5723 22.0587 82.8439 22.9853L80.0187 24.5L82.7255 22.7775C84.3815 21.7238 84.9547 19.5534 84.0396 17.8021L82.5 14.8559L84.2477 17.6803C85.2866 19.3593 87.4277 19.9413 89.1561 19.0147L91.9813 17.5Z" fill="#191919"/>
<path fill-rule="evenodd" clip-rule="evenodd" d="M126.239 20.3385L125.589 16.1492L124.94 20.3385L120.996 21.0286L124.94 21.7186L125.589 25.9079L126.239 21.7186L130.183 21.0286L126.239 20.3385ZM131.506 21.0286L126.426 21.9175L125.589 27.3143L124.753 21.9175L119.672 21.0286L124.753 20.1396L125.589 14.7429L126.426 20.1396L131.506 21.0286Z" fill="#191919"/>
<path fill-rule="evenodd" clip-rule="evenodd" d="M126.858 21.0242L126.208 16.8349L125.558 21.0242L121.615 21.7143L125.558 22.4043L126.208 26.5936L126.858 22.4043L130.801 21.7143L126.858 21.0242ZM132.125 21.7143L127.045 22.6032L126.208 28L125.371 22.6032L120.291 21.7143L125.371 20.8254L126.208 15.4286L127.045 20.8254L132.125 21.7143Z" fill="#191919"/>
<path d="M124.917 14L125.754 19.3968L130.834 20.2857L125.754 21.1746L124.917 26.5714L124.08 21.1746L119 20.2857L124.08 19.3968L124.917 14Z" fill="#191919"/>
<path d="M106 0L106.397 2.40761C106.751 4.56098 108.439 6.24873 110.592 6.60343L113 7L110.592 7.39657C108.439 7.75127 106.751 9.43902 106.397 11.5924L106 14L105.603 11.5924C105.249 9.43902 103.561 7.75127 101.408 7.39657L99 7L101.408 6.60343C103.561 6.24873 105.249 4.56098 105.603 2.40761L106 0Z" fill="#191919"/>
<path d="M145 0L145.397 2.40761C145.751 4.56098 147.439 6.24873 149.592 6.60343L152 7L149.592 7.39657C147.439 7.75127 145.751 9.43902 145.397 11.5924L145 14L144.603 11.5924C144.249 9.43902 142.561 7.75127 140.408 7.39657L138 7L140.408 6.60343C142.561 6.24873 144.249 4.56098 144.603 2.40761L145 0Z" fill="#191919"/>
</svg>
