<svg width="152" height="31" viewBox="0 0 152 31" fill="none" xmlns="http://www.w3.org/2000/svg">
<path d="M145 14L144.882 17.2371C144.809 19.2176 143.241 20.8058 141.287 20.8782L138 21L141.287 21.1218C143.241 21.1942 144.809 22.7824 144.882 24.7629L145 28L145.118 24.7629C145.191 22.7824 146.759 21.1942 148.713 21.1218L152 21L148.713 20.8782C146.759 20.8058 145.191 19.2176 145.118 17.2371L145 14Z" fill="#191919"/>
<path d="M141.547 14.9378L143.041 17.8012C143.955 19.553 143.381 21.7231 141.725 22.776L138.938 24.5473L141.845 22.9869C143.573 22.0594 145.714 22.6403 146.754 24.3187L148.453 27.0622L146.959 24.1988C146.045 22.4469 146.619 20.2769 148.275 19.224L151.062 17.4527L148.155 19.0131C146.427 19.9406 144.286 19.3597 143.246 17.6812L141.547 14.9378Z" fill="#191919"/>
<path d="M139.019 17.5L141.726 19.2225C143.382 20.2762 143.955 22.4466 143.04 24.1979L141.5 27.1441L143.248 24.3197C144.287 22.6407 146.428 22.0587 148.156 22.9853L150.981 24.5L148.274 22.7775C146.618 21.7238 146.045 19.5534 146.96 17.8021L148.5 14.8559L146.752 17.6803C145.713 19.3593 143.572 19.9413 141.844 19.0147L139.019 17.5Z" fill="#191919"/>
<path fill-rule="evenodd" clip-rule="evenodd" d="M104.761 20.3385L105.411 16.1492L106.06 20.3385L110.004 21.0286L106.06 21.7186L105.411 25.9079L104.761 21.7186L100.817 21.0286L104.761 20.3385ZM99.4936 21.0286L104.574 21.9175L105.411 27.3143L106.247 21.9175L111.328 21.0286L106.247 20.1396L105.411 14.7429L104.574 20.1396L99.4936 21.0286Z" fill="#191919"/>
<path fill-rule="evenodd" clip-rule="evenodd" d="M104.142 21.0242L104.792 16.8349L105.442 21.0242L109.385 21.7143L105.442 22.4043L104.792 26.5936L104.142 22.4043L100.199 21.7143L104.142 21.0242ZM98.875 21.7143L103.955 22.6032L104.792 28L105.629 22.6032L110.709 21.7143L105.629 20.8254L104.792 15.4286L103.955 20.8254L98.875 21.7143Z" fill="#191919"/>
<path d="M106.083 14L105.246 19.3968L100.166 20.2857L105.246 21.1746L106.083 26.5714L106.92 21.1746L112 20.2857L106.92 19.3968L106.083 14Z" fill="#191919"/>
<path d="M125 0L124.603 2.40761C124.249 4.56098 122.561 6.24873 120.408 6.60343L118 7L120.408 7.39657C122.561 7.75127 124.249 9.43902 124.603 11.5924L125 14L125.397 11.5924C125.751 9.43902 127.439 7.75127 129.592 7.39657L132 7L129.592 6.60343C127.439 6.24873 125.751 4.56098 125.397 2.40761L125 0Z" fill="#191919"/>
<path d="M86 0L85.6034 2.40761C85.2487 4.56098 83.561 6.24873 81.4076 6.60343L79 7L81.4076 7.39657C83.561 7.75127 85.2487 9.43902 85.6034 11.5924L86 14L86.3966 11.5924C86.7513 9.43902 88.439 7.75127 90.5924 7.39657L93 7L90.5924 6.60343C88.439 6.24873 86.7513 4.56098 86.3966 2.40761L86 0Z" fill="#191919"/>
<path d="M66 14L65.8816 17.2371C65.8092 19.2176 64.2413 20.8058 62.2872 20.8782L59 21L62.2872 21.1218C64.2413 21.1942 65.8092 22.7824 65.8816 24.7629L66 28L66.1184 24.7629C66.1908 22.7824 67.7587 21.1942 69.7128 21.1218L73 21L69.7128 20.8782C67.7587 20.8058 66.1908 19.2176 66.1184 17.2371L66 14Z" fill="#191919"/>
<path d="M62.5467 14.9378L64.0411 17.8012C64.9554 19.553 64.3811 21.7231 62.7246 22.776L59.9378 24.5473L62.8447 22.9869C64.5727 22.0594 66.7141 22.6403 67.7538 24.3187L69.4533 27.0622L67.9589 24.1988C67.0446 22.4469 67.6189 20.2769 69.2754 19.224L72.0622 17.4527L69.1553 19.0131C67.4273 19.9406 65.2859 19.3597 64.2462 17.6812L62.5467 14.9378Z" fill="#191919"/>
<path d="M60.0187 17.5L62.7255 19.2225C64.3815 20.2762 64.9547 22.4466 64.0396 24.1979L62.5 27.1441L64.2477 24.3197C65.2866 22.6407 67.4277 22.0587 69.1561 22.9853L71.9813 24.5L69.2745 22.7775C67.6185 21.7238 67.0453 19.5534 67.9604 17.8021L69.5 14.8559L67.7523 17.6803C66.7134 19.3593 64.5723 19.9413 62.8439 19.0147L60.0187 17.5Z" fill="#191919"/>
<path fill-rule="evenodd" clip-rule="evenodd" d="M25.761 20.3385L26.4106 16.1492L27.0602 20.3385L31.0037 21.0286L27.0602 21.7186L26.4106 25.9079L25.761 21.7186L21.8175 21.0286L25.761 20.3385ZM20.4936 21.0286L25.5738 21.9175L26.4106 27.3143L27.2474 21.9175L32.3276 21.0286L27.2474 20.1396L26.4106 14.7429L25.5738 20.1396L20.4936 21.0286Z" fill="#191919"/>
<path fill-rule="evenodd" clip-rule="evenodd" d="M25.1424 21.0242L25.792 16.8349L26.4416 21.0242L30.3851 21.7143L26.4416 22.4043L25.792 26.5936L25.1424 22.4043L21.1989 21.7143L25.1424 21.0242ZM19.875 21.7143L24.9552 22.6032L25.792 28L26.6288 22.6032L31.709 21.7143L26.6288 20.8254L25.792 15.4286L24.9552 20.8254L19.875 21.7143Z" fill="#191919"/>
<path d="M27.083 14L26.2462 19.3968L21.166 20.2857L26.2462 21.1746L27.083 26.5714L27.9198 21.1746L33 20.2857L27.9198 19.3968L27.083 14Z" fill="#191919"/>
<path d="M46 0L45.6034 2.40761C45.2487 4.56098 43.561 6.24873 41.4076 6.60343L39 7L41.4076 7.39657C43.561 7.75127 45.2487 9.43902 45.6034 11.5924L46 14L46.3966 11.5924C46.7513 9.43902 48.439 7.75127 50.5924 7.39657L53 7L50.5924 6.60343C48.439 6.24873 46.7513 4.56098 46.3966 2.40761L46 0Z" fill="#191919"/>
<path d="M7 0L6.60343 2.40761C6.24873 4.56098 4.56098 6.24873 2.40761 6.60343L0 7L2.40761 7.39657C4.56098 7.75127 6.24873 9.43902 6.60343 11.5924L7 14L7.39657 11.5924C7.75127 9.43902 9.43902 7.75127 11.5924 7.39657L14 7L11.5924 6.60343C9.43902 6.24873 7.75127 4.56098 7.39657 2.40761L7 0Z" fill="#191919"/>
</svg>
